<svg xmlns="http://www.w3.org/2000/svg" width="24" height="22" fill="none">
  <g fill="#fff" clip-path="url(#a)">
    <path d="M16.993 12.277a8.767 8.767 0 0 1-.415-.056c.14.017.279.036.415.056Z"/>
    <path d="M12 9.464C10.913 7.351 7.954 3.412 5.202 1.47 2.566-.391 1.561-.07.902.23.139.573 0 1.744 0 2.433c0 .69.378 5.65.624 6.479.815 2.736 3.713 3.66 6.383 3.364.136-.02.275-.039.415-.056-.138.022-.276.04-.415.056-3.912.58-7.387 2.005-2.83 7.078 5.013 5.19 6.87-1.113 7.823-4.308.953 3.195 2.05 9.271 7.733 4.308 4.267-4.308 1.172-6.498-2.74-7.078a8.767 8.767 0 0 1-.415-.056c.14.017.279.036.415.056 2.67.297 5.568-.628 6.383-3.364.246-.828.624-5.79.624-6.478 0-.69-.139-1.861-.902-2.206-.659-.298-1.665-.62-4.3 1.24C16.046 3.413 13.087 7.352 12 9.465Z"/>
  </g>
  <defs>
    <clipPath id="a">
      <path fill="#fff" d="M0 0h24v21.333H0z"/>
    </clipPath>
  </defs>
</svg>