<svg xmlns="http://www.w3.org/2000/svg" width="24px" height="24px">
    <g fill="#292929" clip-path="url(#a)">
        <path d="M20.993 17.277a8.767 8.767 0 0 1-.415-.056c.14.017.279.036.415.056Z"/>
        <path d="M16 14.464c-1.087-2.113-4.046-6.052-6.798-7.994-2.636-1.861-3.641-1.539-4.3-1.24C4.139 5.573 4 6.744 4 7.433c0 .69.378 5.65.624 6.479.815 2.736 3.713 3.66 6.383 3.364.136-.02.275-.039.415-.056-.138.022-.276.04-.415.056-3.912.58-7.387 2.005-2.83 7.078 5.013 5.19 6.87-1.113 7.823-4.308.953 3.195 2.05 9.271 7.733 4.308 4.267-4.308 1.172-6.498-2.74-7.078a8.767 8.767 0 0 1-.415-.056c.14.017.279.036.415.056 2.67.297 5.568-.628 6.383-3.364.246-.828.624-5.79.624-6.478 0-.69-.139-1.861-.902-2.206-.659-.298-1.665-.62-4.3 1.24-2.752 1.943-5.711 5.882-6.798 7.995Z"/>
    </g>
    <defs>
        <clipPath id="a">
            <path fill="#292929" d="M4 5h24v21.333H4z"/>
        </clipPath>
    </defs>
</svg>